/* XPM */
static char * xarchiver_xpm[] = {
"32 27 230 2",
"  	c None",
". 	c #1A1814",
"+ 	c #36312B",
"@ 	c #47423A",
"# 	c #554D45",
"$ 	c #4C463E",
"% 	c #D0CECB",
"& 	c #C3C0BC",
"* 	c #6D665D",
"= 	c #3A342C",
"- 	c #25201A",
"; 	c #595552",
"> 	c #8F8A85",
", 	c #423D37",
"' 	c #70685E",
") 	c #787065",
"! 	c #F5F4F2",
"~ 	c #D6D3D1",
"{ 	c #534E46",
"] 	c #352F29",
"^ 	c #948E87",
"/ 	c #4D4740",
"( 	c #A09A93",
"_ 	c #9E9A96",
": 	c #44403A",
"< 	c #B1ACA6",
"[ 	c #A39C94",
"} 	c #36332D",
"| 	c #938E87",
"1 	c #99948E",
"2 	c #4D4843",
"3 	c #B6B0A9",
"4 	c #928B83",
"5 	c #48443E",
"6 	c #A8A29C",
"7 	c #98928A",
"8 	c #2B2824",
"9 	c #89857F",
"0 	c #7A736B",
"a 	c #5A554F",
"b 	c #C7C2BC",
"c 	c #ADA69F",
"d 	c #F8BD1B",
"e 	c #ED9800",
"f 	c #D77700",
"g 	c #A24800",
"h 	c #4A1700",
"i 	c #15130F",
"j 	c #27221C",
"k 	c #827B73",
"l 	c #6A6157",
"m 	c #251F18",
"n 	c #443B31",
"o 	c #635647",
"p 	c #554A3D",
"q 	c #483F34",
"r 	c #3C352D",
"s 	c #2F2A23",
"t 	c #78736D",
"u 	c #FACE47",
"v 	c #E3992A",
"w 	c #AF4400",
"x 	c #6D1A00",
"y 	c #2B0700",
"z 	c #59544E",
"A 	c #3B342C",
"B 	c #99938D",
"C 	c #D6D2CE",
"D 	c #817A72",
"E 	c #6E6254",
"F 	c #958A7E",
"G 	c #8B8379",
"H 	c #8A837B",
"I 	c #888179",
"J 	c #837C73",
"K 	c #A7A199",
"L 	c #C8C3BC",
"M 	c #F8CD4A",
"N 	c #D98625",
"O 	c #9F2C03",
"P 	c #460800",
"Q 	c #6C665F",
"R 	c #494238",
"S 	c #A9A39D",
"T 	c #F1EEEC",
"U 	c #ABA399",
"V 	c #F9C02F",
"W 	c #EEBA44",
"X 	c #BA5612",
"Y 	c #771300",
"Z 	c #250200",
"` 	c #4B4741",
" .	c #464038",
"..	c #959089",
"+.	c #A19C96",
"@.	c #DC9325",
"#.	c #F2AA0F",
"$.	c #FAAE00",
"%.	c #E89100",
"&.	c #BA5700",
"*.	c #F8C334",
"=.	c #E7A839",
"-.	c #A9430D",
";.	c #570B00",
">.	c #68645E",
",.	c #C6C2BD",
"'.	c #A19A91",
").	c #CE6A00",
"!.	c #EA9200",
"~.	c #EF9900",
"{.	c #EB9300",
"].	c #DD7E00",
"^.	c #CD6D00",
"/.	c #F6C232",
"(.	c #DE932E",
"_.	c #9A3409",
":.	c #3C0700",
"<.	c #3E3933",
"[.	c #9E9994",
"}.	c #706A63",
"|.	c #CD6900",
"1.	c #E68A00",
"2.	c #ED9400",
"3.	c #ED9500",
"4.	c #ED9600",
"5.	c #F3A100",
"6.	c #D17308",
"7.	c #761700",
"8.	c #220200",
"9.	c #59544F",
"0.	c #BBB5AE",
"a.	c #968F87",
"b.	c #D37100",
"c.	c #EC9300",
"d.	c #EC9400",
"e.	c #CD6B00",
"f.	c #893700",
"g.	c #47433E",
"h.	c #9C9791",
"i.	c #969089",
"j.	c #DF8F11",
"k.	c #F3A708",
"l.	c #EA9100",
"m.	c #E98F00",
"n.	c #D87600",
"o.	c #B24F00",
"p.	c #59544D",
"q.	c #BCB7B1",
"r.	c #80786E",
"s.	c #F6BC33",
"t.	c #EAAC38",
"u.	c #B75910",
"v.	c #C46300",
"w.	c #EB9200",
"x.	c #DB7A00",
"y.	c #AE4C00",
"z.	c #55504A",
"A.	c #A8A39C",
"B.	c #8D867D",
"C.	c #F7C446",
"D.	c #DA8E28",
"E.	c #95390D",
"F.	c #4C0B00",
"G.	c #964500",
"H.	c #E18300",
"I.	c #EC9600",
"J.	c #D67400",
"K.	c #221E1A",
"L.	c #3E3832",
"M.	c #918B82",
"N.	c #7C746C",
"O.	c #E69D3A",
"P.	c #CE711A",
"Q.	c #812305",
"R.	c #2F0500",
"S.	c #D06B00",
"T.	c #E68C00",
"U.	c #D87700",
"V.	c #777067",
"W.	c #484037",
"X.	c #F4F3F1",
"Y.	c #8C8379",
"Z.	c #493C2D",
"`.	c #2F1507",
" +	c #230D06",
".+	c #210B06",
"++	c #180B08",
"@+	c #D47100",
"#+	c #DF8000",
"$+	c #BE5A00",
"%+	c #7E7770",
"&+	c #776F65",
"*+	c #C6C2BE",
"=+	c #D8D7D4",
"-+	c #867D72",
";+	c #716454",
">+	c #615547",
",+	c #463D31",
"'+	c #3D352B",
")+	c #3E362C",
"!+	c #2F2921",
"~+	c #6A655E",
"{+	c #9E968C",
"]+	c #EC9500",
"^+	c #C15C00",
"/+	c #47413A",
"(+	c #958C80",
"_+	c #B0A497",
":+	c #9E9386",
"<+	c #988D80",
"[+	c #968B7E",
"}+	c #8D857A",
"|+	c #C4BFBA",
"1+	c #E38700",
"2+	c #E08200",
"3+	c #C45E00",
"4+	c #CE6900",
"5+	c #E99000",
"6+	c #E28500",
"7+	c #C86200",
"8+	c #D46F00",
"9+	c #CF6600",
"0+	c #CB6000",
"a+	c #C95E00",
"b+	c #BB4B00",
"c+	c #5E1C00",
"d+	c #591700",
"e+	c #5A1900",
"f+	c #5C1E00",
"g+	c #491700",
"                                                                ",
"  . + @ # $ % & * = -                                           ",
"  ; > , ' ) ! ~ { ] ^                                           ",
"        / ( _                                                   ",
"        : < [                                                   ",
"        } | 1                                                   ",
"        2 3 4                                                   ",
"        5 6 7                                                   ",
"        8 9 0                                                   ",
"        a b c                                     d e f g h     ",
"      i j k l m n o p q r s t                   u v w x y       ",
"      z A B C D E F G H I J K L               M N O P           ",
"      Q R S T U                           V W X Y Z             ",
"      `  ...+.        @.#.$.$.$.%.&.    *.=.-.;.                ",
"        >.,.'.          ).!.~.~.{.].^./.(._.:.                  ",
"        <.[.}.            |.1.2.3.4.5.6.7.8.                    ",
"        9.0.a.              b.c.4.3.d.e.f.                      ",
"        g.h.i.              j.k.l.3.3.m.n.o.                    ",
"        p.q.r.            s.t.u.v.w.4.3.w.x.y.                  ",
"        z.A.B.          C.D.E.F.G.H.I.3.3.l.J.                  ",
"      K.L.M.N.        O.P.Q.R.    S.T.4.3.3.m.U.                ",
"      V.W.,.X.Y.Z.  `. +.+++        @+{.4.3.3.{.#+$+            ",
"      %+&+*+=+-+;+>+,+'+)+!+~+{+      ].]+3.3.3.{.#+^+          ",
"              /+(+_+:+<+[+}+|+          1+4.3.3.3.c.2+3+        ",
"                                        4+T.{.l.l.l.5+6+7+      ",
"                                          8+9+0+0+0+0+0+a+b+    ",
"                                            c+d+d+d+d+d+e+f+g+  "};
